<svg width="61" height="60" viewBox="0 0 61 60" fill="none" xmlns="http://www.w3.org/2000/svg">
<rect opacity="0.4" width="61" height="60" rx="16" fill="#EC1475"/>
<path d="M28.92 36.86C28.0933 36.86 27.4 36.7067 26.84 36.4C26.2933 36.0933 25.8867 35.6933 25.62 35.2C25.3533 34.7067 25.22 34.1867 25.22 33.64C25.22 33.3467 25.26 33.0533 25.34 32.76C25.5133 32.1467 25.8067 31.5867 26.22 31.08C26.6333 30.56 27.16 30.1267 27.8 29.78C28.44 29.4333 29.1867 29.22 30.04 29.14C29.9067 28.9933 29.7933 28.8267 29.7 28.64C29.6067 28.44 29.5533 28.2333 29.54 28.02C28.8867 27.8067 28.4133 27.5267 28.12 27.18C27.8267 26.82 27.68 26.46 27.68 26.1C27.68 25.6867 27.8533 25.3333 28.2 25.04C28.5467 24.7333 29.0333 24.58 29.66 24.58C29.7667 24.58 29.8667 24.58 29.96 24.58C30.0533 24.58 30.1533 24.5933 30.26 24.62C30.2867 24.62 30.3 24.6467 30.3 24.7C30.3 24.74 30.2733 24.76 30.22 24.76C30.14 24.76 30.06 24.7533 29.98 24.74C29.9133 24.7267 29.84 24.72 29.76 24.72C29.24 24.72 28.8267 24.8533 28.52 25.12C28.2267 25.3867 28.08 25.6933 28.08 26.04C28.08 26.3333 28.1933 26.6333 28.42 26.94C28.66 27.2333 29.0333 27.48 29.54 27.68C29.54 27.6267 29.5467 27.5867 29.56 27.56C29.64 27.0533 29.8467 26.64 30.18 26.32C30.5267 26 30.9267 25.76 31.38 25.6C31.8467 25.44 32.3 25.36 32.74 25.36C33.2467 25.36 33.6867 25.4667 34.06 25.68C34.4467 25.88 34.64 26.1867 34.64 26.6C34.64 27.0267 34.48 27.3667 34.16 27.62C33.8533 27.8733 33.4667 28.0533 33 28.16C32.5333 28.2533 32.0533 28.3 31.56 28.3C31.2933 28.3 31.0333 28.2867 30.78 28.26C30.5267 28.2333 30.3 28.2 30.1 28.16C30.1 28.3733 30.1267 28.56 30.18 28.72C30.2333 28.88 30.2933 29.0133 30.36 29.12C30.4267 29.1067 30.5 29.1 30.58 29.1C30.66 29.1 30.7333 29.1 30.8 29.1C31 29.1 31.2067 29.1133 31.42 29.14C31.6333 29.1533 31.8467 29.1733 32.06 29.2C32.4733 29.2533 32.68 29.3933 32.68 29.62C32.68 29.8467 32.4733 29.96 32.06 29.96C31.78 29.96 31.4867 29.9133 31.18 29.82C30.8733 29.7267 30.5933 29.5867 30.34 29.4C29.82 29.4933 29.2733 29.6667 28.7 29.92C28.14 30.16 27.6333 30.5133 27.18 30.98C26.7267 31.4467 26.4067 32.0467 26.22 32.78C26.18 32.9133 26.1533 33.0533 26.14 33.2C26.1267 33.3467 26.12 33.4933 26.12 33.64C26.12 34.16 26.24 34.6467 26.48 35.1C26.72 35.5533 27.0667 35.92 27.52 36.2C27.9733 36.48 28.52 36.62 29.16 36.62C29.84 36.62 30.48 36.48 31.08 36.2C31.6933 35.92 32.2133 35.5533 32.64 35.1C33.0667 34.6467 33.34 34.1733 33.46 33.68C33.4867 33.56 33.5067 33.4467 33.52 33.34C33.5467 33.22 33.56 33.1067 33.56 33C33.56 32.5067 33.4067 32.1467 33.1 31.92C32.7933 31.68 32.4333 31.56 32.02 31.56C31.6067 31.56 31.1933 31.6733 30.78 31.9C30.38 32.1267 30.08 32.4533 29.88 32.88C29.8267 33 29.7733 33.1533 29.72 33.34C29.68 33.5267 29.66 33.7133 29.66 33.9C29.66 34.1133 29.7067 34.3067 29.8 34.48C29.8933 34.64 30.0667 34.72 30.32 34.72C30.4133 34.72 30.4733 34.7133 30.5 34.7C30.5267 34.6733 30.5667 34.6333 30.62 34.58C30.6467 34.5533 30.68 34.54 30.72 34.54C30.8 34.54 30.84 34.5867 30.84 34.68C30.84 34.7733 30.7667 34.8667 30.62 34.96C30.58 34.9867 30.5333 35.0067 30.48 35.02C30.44 35.02 30.3867 35.02 30.32 35.02C29.96 35.02 29.6933 34.88 29.52 34.6C29.36 34.32 29.28 34.0267 29.28 33.72C29.28 33.2667 29.4067 32.8667 29.66 32.52C29.9133 32.16 30.2467 31.8533 30.66 31.6C31.0733 31.3333 31.5133 31.1 31.98 30.9C32.46 30.7 32.9267 30.5267 33.38 30.38C33.8333 30.22 34.2267 30.0733 34.56 29.94C35.52 29.5533 36.1933 29.1133 36.58 28.62C36.9667 28.1267 37.16 27.6933 37.16 27.32C37.16 27.08 37.0933 26.8867 36.96 26.74C36.84 26.5933 36.6733 26.52 36.46 26.52C36.4067 26.52 36.34 26.5267 36.26 26.54C36.1933 26.5533 36.12 26.58 36.04 26.62C36.0267 26.6333 36.0067 26.64 35.98 26.64C35.9133 26.64 35.88 26.6067 35.88 26.54C35.88 26.4467 35.92 26.3933 36 26.38C36.12 26.3267 36.26 26.3 36.42 26.3C36.7267 26.3 37 26.42 37.24 26.66C37.48 26.8867 37.6 27.1867 37.6 27.56C37.6 27.9467 37.4 28.38 37 28.86C36.6 29.3267 35.8867 29.7733 34.86 30.2C34.6867 30.2667 34.4133 30.3733 34.04 30.52C33.6667 30.6533 33.2867 30.7933 32.9 30.94C32.5133 31.0867 32.2133 31.2133 32 31.32C32.12 31.2667 32.28 31.24 32.48 31.24C32.8933 31.24 33.2867 31.3933 33.66 31.7C34.0333 32.0067 34.22 32.4533 34.22 33.04C34.22 33.1333 34.2067 33.24 34.18 33.36C34.1667 33.4667 34.1467 33.58 34.12 33.7C33.96 34.34 33.6133 34.9 33.08 35.38C32.5467 35.8467 31.9133 36.2067 31.18 36.46C30.4467 36.7267 29.6933 36.86 28.92 36.86ZM31.66 28.04C32.1 28.04 32.52 28 32.92 27.92C33.3333 27.8267 33.6667 27.68 33.92 27.48C34.1867 27.28 34.32 27 34.32 26.64C34.32 26.3067 34.1733 26.06 33.88 25.9C33.6 25.7267 33.2667 25.64 32.88 25.64C32.52 25.64 32.14 25.7133 31.74 25.86C31.3533 25.9933 31.0133 26.2067 30.72 26.5C30.4267 26.78 30.24 27.1333 30.16 27.56C30.1467 27.6133 30.14 27.6667 30.14 27.72C30.14 27.7733 30.1333 27.8267 30.12 27.88C30.5733 27.9867 31.0867 28.04 31.66 28.04ZM31.78 29.78C31.94 29.78 32.0733 29.76 32.18 29.72C32.2867 29.6667 32.34 29.6133 32.34 29.56C32.34 29.5067 32.28 29.4533 32.16 29.4C32.0533 29.3333 31.9067 29.2933 31.72 29.28C31.56 29.28 31.38 29.2867 31.18 29.3C30.9933 29.3133 30.8 29.3333 30.6 29.36C30.72 29.4533 30.84 29.5267 30.96 29.58C31.0933 29.62 31.1867 29.6533 31.24 29.68C31.3467 29.72 31.44 29.7467 31.52 29.76C31.6133 29.7733 31.7 29.78 31.78 29.78Z" fill="white"/>
<path d="M5.232 36.288C4.144 36.288 3.41867 36.1067 3.056 35.744C2.69333 35.3813 2.512 35.008 2.512 34.624C2.512 34.2613 2.64 33.9947 2.896 33.824C3.13067 33.6533 3.36533 33.568 3.6 33.568C4.048 33.568 4.272 33.76 4.272 34.144C4.272 34.3147 4.208 34.464 4.08 34.592C3.93067 34.6987 3.74933 34.752 3.536 34.752C3.38667 34.752 3.25867 34.7307 3.152 34.688C3.04533 34.6453 2.992 34.624 2.992 34.624C2.992 34.9013 3.12 35.1893 3.376 35.488C3.61067 35.7867 4.12267 35.936 4.912 35.936C5.78667 35.936 6.58667 35.7013 7.312 35.232C8.03733 34.7413 8.73067 34.1013 9.392 33.312C10.0747 32.5013 10.768 31.616 11.472 30.656C12.176 29.6747 12.9333 28.6933 13.744 27.712C14.32 27.0293 14.992 26.2507 15.76 25.376C16.5493 24.5013 17.4133 23.648 18.352 22.816C19.312 21.9627 20.3253 21.216 21.392 20.576C22.4587 19.9147 23.568 19.4667 24.72 19.232C25.0187 19.168 25.168 19.1893 25.168 19.296C25.168 19.4027 25.0187 19.488 24.72 19.552C23.76 19.7653 22.8213 20.224 21.904 20.928C20.9867 21.632 20.0693 22.496 19.152 23.52C18.256 24.5227 17.36 25.6 16.464 26.752C15.568 27.904 14.672 29.0453 13.776 30.176C12.88 31.3067 11.9627 32.3307 11.024 33.248C10.1067 34.1653 9.168 34.9013 8.208 35.456C7.248 36.0107 6.256 36.288 5.232 36.288ZM17.584 36.288C16.6667 36.288 16.0587 36.1173 15.76 35.776C15.4827 35.4133 15.344 35.0187 15.344 34.592C15.344 33.8667 15.504 33.2373 15.824 32.704C16.144 32.1707 16.5067 31.7013 16.912 31.296C17.3173 30.8907 17.68 30.5067 18 30.144C18.32 29.7813 18.48 29.4187 18.48 29.056C18.48 28.7573 18.3413 28.5547 18.064 28.448C17.7867 28.3413 17.52 28.288 17.264 28.288C17.0933 28.288 16.944 28.2987 16.816 28.32C16.7093 28.3413 16.656 28.3733 16.656 28.416C16.656 28.5013 16.7093 28.5653 16.816 28.608C16.944 28.6293 17.0827 28.64 17.232 28.64C17.9147 28.64 18.5867 28.448 19.248 28.064C19.9307 27.6587 20.5493 27.1467 21.104 26.528C21.6587 25.888 22.1067 25.216 22.448 24.512C22.7893 23.808 22.96 23.1573 22.96 22.56C22.96 21.6213 22.4907 20.864 21.552 20.288C20.6133 19.6907 19.152 19.392 17.168 19.392C15.7387 19.392 14.3947 19.6267 13.136 20.096C11.8773 20.544 10.7787 21.1413 9.84 21.888C8.90133 22.6133 8.16533 23.392 7.632 24.224C7.09867 25.0347 6.832 25.792 6.832 26.496C6.832 27.008 6.992 27.456 7.312 27.84C7.632 28.224 8.112 28.416 8.752 28.416C9.43467 28.416 10.128 28.1707 10.832 27.68C11.5573 27.1893 12.2293 26.5813 12.848 25.856C13.488 25.1093 14.0213 24.3307 14.448 23.52C14.8747 22.7093 15.1413 21.984 15.248 21.344C15.2907 21.152 15.3547 21.056 15.44 21.056C15.5253 21.056 15.568 21.152 15.568 21.344C15.568 22.368 15.376 23.328 14.992 24.224C14.608 25.12 14.096 25.9093 13.456 26.592C12.816 27.2533 12.1013 27.776 11.312 28.16C10.544 28.544 9.75467 28.736 8.944 28.736C8.13333 28.736 7.504 28.5227 7.056 28.096C6.62933 27.6693 6.416 27.072 6.416 26.304C6.416 25.6 6.69333 24.832 7.248 24C7.80267 23.168 8.58133 22.3787 9.584 21.632C10.608 20.864 11.8027 20.2453 13.168 19.776C14.5547 19.2853 16.0693 19.04 17.712 19.04C18.864 19.04 19.92 19.2107 20.88 19.552C21.84 19.8933 22.608 20.4053 23.184 21.088C23.7813 21.7707 24.08 22.6347 24.08 23.68C24.08 24.3627 23.856 25.024 23.408 25.664C22.9813 26.2827 22.4267 26.8373 21.744 27.328C21.0613 27.8187 20.336 28.2027 19.568 28.48C18.8 28.7573 18.0747 28.896 17.392 28.896C16.9653 28.896 16.656 28.864 16.464 28.8C16.2933 28.7147 16.208 28.5973 16.208 28.448C16.208 28.3413 16.2827 28.2453 16.432 28.16C16.6027 28.0747 16.912 28.032 17.36 28.032C17.616 28.032 17.904 28.0747 18.224 28.16C18.544 28.224 18.8213 28.3733 19.056 28.608C19.312 28.8427 19.44 29.2053 19.44 29.696C19.44 30.3573 19.2693 30.9547 18.928 31.488C18.608 32.0213 18.2347 32.5013 17.808 32.928C17.3813 33.3333 16.9973 33.7173 16.656 34.08C16.336 34.4213 16.176 34.7627 16.176 35.104C16.176 35.4027 16.2827 35.616 16.496 35.744C16.7307 35.872 17.0187 35.936 17.36 35.936C17.9787 35.936 18.5973 35.7653 19.216 35.424C19.856 35.0613 20.4533 34.592 21.008 34.016C21.5627 33.44 22.0213 32.8213 22.384 32.16C22.768 31.4987 23.0027 30.848 23.088 30.208C23.1307 29.9733 23.1947 29.888 23.28 29.952C23.3867 30.016 23.4507 30.1547 23.472 30.368C23.5573 30.88 23.4187 31.4773 23.056 32.16C22.7147 32.8213 22.2347 33.472 21.616 34.112C21.0187 34.7307 20.3573 35.2533 19.632 35.68C18.928 36.0853 18.2453 36.288 17.584 36.288Z" fill="white"/>
<path d="M37.08 36.288C36.4827 36.288 35.928 36.2133 35.416 36.064C34.904 35.936 34.648 35.712 34.648 35.392C34.648 35.1787 34.7653 34.9867 35 34.816C35.256 34.6453 35.5547 34.5173 35.896 34.432C36.2587 34.3253 36.5787 34.272 36.856 34.272C37.7733 34.272 38.6587 34.4107 39.512 34.688C40.3653 34.944 41.24 35.2107 42.136 35.488C43.0533 35.744 44.0347 35.872 45.08 35.872C46.36 35.872 47.5867 35.6053 48.76 35.072C49.9333 34.5387 50.9787 33.8133 51.896 32.896C52.8133 31.9787 53.528 30.944 54.04 29.792C54.5733 28.6187 54.84 27.4027 54.84 26.144C54.84 24.8 54.6053 23.6267 54.136 22.624C53.688 21.6213 52.9627 20.8427 51.96 20.288C50.9787 19.7333 49.6987 19.456 48.12 19.456C46.9253 19.456 45.7627 19.7013 44.632 20.192C43.5013 20.6613 42.488 21.28 41.592 22.048C40.696 22.7947 39.9813 23.6053 39.448 24.48C38.9147 25.3547 38.648 26.176 38.648 26.944C38.648 27.3493 38.808 27.7653 39.128 28.192C39.448 28.6187 40.0027 28.832 40.792 28.832C41.5387 28.832 42.3493 28.64 43.224 28.256C44.0987 27.8507 44.9307 27.3173 45.72 26.656C46.5307 25.9733 47.224 25.216 47.8 24.384C48.376 23.5307 48.728 22.656 48.856 21.76C48.8987 21.4827 48.9627 21.3547 49.048 21.376C49.1333 21.3973 49.176 21.5253 49.176 21.76C49.176 22.6773 48.9413 23.584 48.472 24.48C48.0027 25.3547 47.384 26.144 46.616 26.848C45.848 27.552 44.9947 28.1173 44.056 28.544C43.1387 28.9707 42.2107 29.184 41.272 29.184C40.44 29.184 39.7787 29.0453 39.288 28.768C38.7973 28.4907 38.4453 28.1493 38.232 27.744C38.0187 27.3173 37.912 26.9013 37.912 26.496C37.912 25.6853 38.1573 24.8533 38.648 24C39.16 23.1253 39.864 22.3253 40.76 21.6C41.6773 20.8747 42.744 20.288 43.96 19.84C45.1973 19.392 46.5307 19.168 47.96 19.168C49.2827 19.168 50.424 19.3493 51.384 19.712C52.344 20.0533 53.1333 20.5333 53.752 21.152C54.3707 21.7493 54.8293 22.4533 55.128 23.264C55.448 24.0533 55.608 24.896 55.608 25.792C55.608 27.2853 55.32 28.672 54.744 29.952C54.1893 31.2107 53.4213 32.3093 52.44 33.248C51.4587 34.1867 50.3387 34.9227 49.08 35.456C47.8213 35.968 46.5093 36.224 45.144 36.224C44.1413 36.224 43.2027 36.1067 42.328 35.872C41.4533 35.6373 40.6 35.4133 39.768 35.2C38.9573 34.9653 38.0933 34.848 37.176 34.848C36.984 34.848 36.7067 34.8587 36.344 34.88C36.0027 34.9013 35.6933 34.9547 35.416 35.04C35.1387 35.104 35 35.2213 35 35.392C35 35.5413 35.128 35.6587 35.384 35.744C35.64 35.8293 35.9387 35.8827 36.28 35.904C36.6213 35.9253 36.8987 35.936 37.112 35.936C38.0933 35.936 39.032 35.7547 39.928 35.392C40.824 35.008 41.688 34.4853 42.52 33.824C43.352 33.1627 44.1413 32.416 44.888 31.584C45.656 30.7307 46.392 29.8347 47.096 28.896C47.992 27.68 48.952 26.528 49.976 25.44C51 24.352 52.0453 23.392 53.112 22.56C54.1787 21.7067 55.224 21.0453 56.248 20.576C57.272 20.0853 58.232 19.84 59.128 19.84C59.4053 19.84 59.512 19.8933 59.448 20C59.384 20.0853 59.2667 20.128 59.096 20.128C58.3707 20.128 57.592 20.3733 56.76 20.864C55.928 21.3547 55.0747 22.016 54.2 22.848C53.3467 23.68 52.5253 24.5973 51.736 25.6C50.9467 26.6027 50.232 27.616 49.592 28.64C49.0587 29.4933 48.3973 30.368 47.608 31.264C46.8187 32.16 45.9013 32.992 44.856 33.76C43.8107 34.5067 42.6373 35.1147 41.336 35.584C40.0347 36.0533 38.616 36.288 37.08 36.288Z" fill="white"/>
<rect opacity="0.3" width="61" height="60" rx="16" fill="url(#paint0_linear_122_371)"/>
<defs>
<linearGradient id="paint0_linear_122_371" x1="30.5" y1="0" x2="30.5" y2="60" gradientUnits="userSpaceOnUse">
<stop stop-color="#9C9A9A"/>
<stop offset="0.5" stop-color="#444444"/>
<stop offset="0.51" stop-color="#1E1E1E"/>
<stop offset="1" stop-color="#323232"/>
</linearGradient>
</defs>
</svg>
